# xmcd
#
# Track frame offsets:
# 150
# 13135
# 29300
# 42732
# 57302
# 75400
# 87455
# 99357
# 114462
# 124360
#
# Disc length: 1810 seconds
#
# Revision: 0
# Processed by: cddbd v1.5.1PL2 Copyright (c) Steve Scherf et al.
# Submitted via: Audion 3.0.2 (http://www.panic.com/audion/)
#
DISCID=8007100a
DTITLE=CD Mania - El Nacional - Fiesta Caribeña- Vol. 1
DYEAR=1900
DGENRE=
TTITLE0=Humo - Sonora Matancera
TTITLE1=La Negra Tomasa - Guaracheros De Oriente
TTITLE2=Me Voy Pal Pueblo - Daniel Santos
TTITLE3=Frutas Del Caney - Trio Matamoros
TTITLE4=Al Vaiven De Mi Carretera - Guaracheros De Oriente
TTITLE5=Mentira, Salome - Sonora Matancera
TTITLE6=Cuando Sali De Cuba - Sonora Matancera
TTITLE7=El Pastorcillo - Guaracheros De Oriente
TTITLE8=Obsesion - Toña La Negra
TTITLE9=Besame Morenita - Sonora Matancera
EXTD=
EXTT0=
EXTT1=
EXTT2=
EXTT3=
EXTT4=
EXTT5=
EXTT6=
EXTT7=
EXTT8=
EXTT9=
PLAYORDER=
